<?xml version="1.0"?>
<svg xmlns="http://www.w3.org/2000/svg" xmlns:xlink="http://www.w3.org/1999/xlink" version="1.1" id="Capa_1" x="0px" y="0px" viewBox="0 0 491.52 491.52" style="enable-background:new 0 0 491.52 491.52;" xml:space="preserve" width="512px" height="512px" class=""><g><g>
	<circle style="fill:#AED25A" cx="245.76" cy="245.76" r="245.76" data-original="#334D5C" class="active-path" data-old_color="#C8F363"/>
	<path style="fill:#AED25A" d="M226.816,122.88c0,0-6.656,36.352-7.68,48.64c-2.048,25.6-29.184,44.544-41.984,56.32   c-47.104,42.496-59.904,61.44-56.32,87.04c2.56,17.92,9.216,30.208,17.92,39.424L273.92,489.472   c96.768-10.752,176.128-77.824,205.824-167.936L265.216,108.032C246.272,96.256,226.816,122.88,226.816,122.88z" data-original="#334D5C" class="active-path" data-old_color="#C8F363"/>
</g><path style="opacity:0.1;enable-background:new    ;" d="M226.816,122.88c0,0-6.656,36.352-7.68,48.64  c-2.048,25.6-29.184,44.544-41.984,56.32c-47.104,42.496-59.904,61.44-56.32,87.04c2.56,17.92,9.216,30.208,17.92,39.424  L273.92,489.472c96.768-10.752,176.128-77.824,205.824-167.936L265.216,108.032C246.272,96.256,226.816,122.88,226.816,122.88z" data-original="#000000" class=""/><path style="fill:#FFFFFF;" d="M265.216,108.032c0,0-0.512,66.048,21.504,92.16c13.312,16.384,57.344,53.248,62.464,57.344  c15.872,12.288,30.208,47.616,15.872,78.848c-9.216,19.968-18.432,36.352-79.36,36.864c0,0-30.72,30.72-80.384,0.512  c0,0-75.776,12.288-84.992-57.856c-3.584-25.6,9.728-44.544,56.32-87.04c12.8-11.776,39.936-30.72,41.984-56.32  c1.024-12.288,7.68-48.64,7.68-48.64S246.272,96.256,265.216,108.032z" data-original="#FFFFFF" class=""/><g>
	<path style="fill:#EBF0F3;" d="M265.216,108.032c0,0-0.512,66.048,21.504,92.16c13.312,16.384,57.344,53.248,62.464,57.344   c15.872,12.288,30.208,47.616,15.872,78.848c-9.216,19.968-18.432,36.352-79.36,36.864L265.216,108.032z" data-original="#EBF0F3" class=""/>
	<path style="fill:#EBF0F3;" d="M227.328,122.88c0,0-6.656,36.352-7.68,48.64c-2.048,26.112-29.184,44.544-41.984,56.32   c-46.592,42.496-59.904,61.44-56.32,87.04c8.704,70.656,84.48,58.88,84.48,58.88L227.328,122.88z" data-original="#EBF0F3" class=""/>
</g><ellipse transform="matrix(-0.9408 0.3389 -0.3389 -0.9408 519.7982 144.6058)" style="fill:#DC8744" cx="247.274" cy="117.687" rx="14.336" ry="7.168" data-original="#DC8744" class="" data-old_color="#EBAED1"/></g> </svg>
