<?xml version="1.0" encoding="iso-8859-1"?>
<!-- Generator: Adobe Illustrator 19.0.0, SVG Export Plug-In . SVG Version: 6.00 Build 0)  -->
<svg version="1.1" id="Capa_1" xmlns="http://www.w3.org/2000/svg" xmlns:xlink="http://www.w3.org/1999/xlink" x="0px" y="0px"
	 viewBox="0 0 512 512" style="enable-background:new 0 0 512 512;" xml:space="preserve">
<path style="fill:#FFD883;" d="M214.584,73.767h-41.42c-27.447,0-49.697,22.25-49.697,49.697l0.001,265.07
	c0,27.449,22.252,49.7,49.7,49.7h41.415h82.833h41.42c27.447,0,49.697-22.25,49.697-49.697v-265.07c0-27.449-22.252-49.7-49.7-49.7
	h-41.415L214.584,73.767L214.584,73.767z"/>
<rect x="189.73" y="73.77" style="fill:#FDBE40;" width="132.53" height="363.9"/>
<g>
	<path style="fill:#E09F43;" d="M189.734,99.398c-4.143,0-7.5,3.357-7.5,7.5V405.1c0,4.143,3.357,7.5,7.5,7.5s7.5-3.357,7.5-7.5
		V106.898C197.234,102.756,193.877,99.398,189.734,99.398z"/>
	<path style="fill:#E09F43;" d="M322.266,99.398c-4.143,0-7.5,3.357-7.5,7.5V405.1c0,4.143,3.357,7.5,7.5,7.5s7.5-3.357,7.5-7.5
		V106.898C329.766,102.756,326.408,99.398,322.266,99.398z"/>
</g>
<path style="fill:#B31E48;" d="M256.001,0c-4.143,0-7.5,3.357-7.5,7.5l-0.002,497c0,4.143,3.357,7.5,7.5,7.5
	c4.143,0,7.5-3.357,7.5-7.5l0.002-497C263.501,3.357,260.144,0,256.001,0z"/>
<path style="fill:#DC1C4A;" d="M214.583,57.2c0-22.874,18.543-41.417,41.417-41.417c22.874,0,41.417,18.543,41.417,41.417v397.6
	c0,22.874-18.543,41.417-41.417,41.417s-41.417-18.543-41.417-41.417L214.583,57.2L214.583,57.2z"/>
<path style="fill:#B31E48;" d="M256,15.783c-3.449,0-6.797,0.429-10,1.223c18.041,4.474,31.416,20.769,31.416,40.194v397.6
	c0,19.425-13.375,35.72-31.416,40.194c3.203,0.794,6.551,1.223,10,1.223c22.874,0,41.417-18.543,41.417-41.417V57.2
	C297.417,34.326,278.874,15.783,256,15.783z"/>
<path style="fill:#FDBE40;" d="M251.858,197.233l8.282-0.001c13.27,0,24.067-10.796,24.067-24.066
	c0-13.271-10.797-24.067-24.07-24.067l-8.28,0.003c-5,0-9.067-4.067-9.067-9.067c0-4.999,4.067-9.066,9.068-9.066l8.282-0.001
	c13.27,0,24.067-10.796,24.067-24.066S273.41,82.835,260.14,82.835c-4.143,0-7.5,3.357-7.5,7.5s3.357,7.5,7.5,7.5
	c5,0,9.067,4.067,9.067,9.067c0,4.999-4.067,9.066-9.068,9.066l-8.282,0.001c-13.27,0-24.067,10.796-24.067,24.066
	c0,13.271,10.797,24.067,24.07,24.067l8.28-0.003c5,0,9.067,4.067,9.067,9.067c0,4.999-4.067,9.066-9.068,9.066l-8.282,0.001
	c-13.27,0-24.067,10.796-24.067,24.066c0,13.27,10.797,24.067,24.07,24.067l8.28-0.003c5,0,9.067,4.067,9.067,9.067
	c0,4.999-4.067,9.066-9.068,9.066l-8.282,0.001c-13.27,0-24.067,10.796-24.067,24.066s10.797,24.067,24.067,24.067h8.283
	c5,0,9.067,4.067,9.067,9.066c0,4.999-4.067,9.066-9.068,9.066l-8.282,0.001c-13.27,0-24.067,10.797-24.067,24.067
	s10.797,24.066,24.069,24.066l8.281-0.002c5,0,9.067,4.067,9.067,9.067c0,4.999-4.067,9.066-9.068,9.066l-8.282,0.001
	c-13.27,0-24.067,10.796-24.067,24.066c0,13.27,10.797,24.067,24.067,24.067c4.143,0,7.5-3.357,7.5-7.5s-3.357-7.5-7.5-7.5
	c-5,0-9.067-4.067-9.067-9.067c0-4.999,4.067-9.066,9.068-9.066l8.282-0.001c13.27,0,24.067-10.796,24.067-24.066
	c0-13.27-10.797-24.067-24.069-24.067l-8.281,0.002c-5,0-9.067-4.067-9.067-9.066c0-5,4.067-9.067,9.068-9.067l8.282-0.001
	c13.27,0,24.067-10.796,24.067-24.066c0-13.27-10.797-24.066-24.067-24.066h-8.283c-5,0-9.067-4.067-9.067-9.067
	c0-4.999,4.067-9.066,9.068-9.066l8.282-0.001c13.27,0,24.067-10.796,24.067-24.066c0-13.27-10.797-24.067-24.07-24.067l-8.28,0.003
	c-5,0-9.067-4.067-9.067-9.067C242.79,201.301,246.857,197.233,251.858,197.233z"/>
<path style="fill:#B31E48;" d="M239.434,49.7h-24.16c-0.445,2.434-0.69,4.938-0.69,7.5v7.5h24.85c4.143,0,7.5-3.357,7.5-7.5
	S243.576,49.7,239.434,49.7z"/>
<g>
	<polygon style="fill:#E09F43;" points="194.584,73.767 214.584,73.767 173.164,73.766 173.153,73.767 	"/>
	<path style="fill:#E09F43;" d="M338.833,73.766h-19.99c27.444,0.006,49.69,22.255,49.69,49.7v265.07
		c0,27.444-22.245,49.691-49.688,49.696h19.991c27.447,0,49.697-22.25,49.697-49.697v-265.07
		C388.533,96.018,366.281,73.766,338.833,73.766z"/>
	<polygon style="fill:#E09F43;" points="173.159,438.233 173.168,438.234 214.583,438.233 194.583,438.233 	"/>
</g>
<g>
</g>
<g>
</g>
<g>
</g>
<g>
</g>
<g>
</g>
<g>
</g>
<g>
</g>
<g>
</g>
<g>
</g>
<g>
</g>
<g>
</g>
<g>
</g>
<g>
</g>
<g>
</g>
<g>
</g>
</svg>
