<?xml version="1.0" encoding="iso-8859-1"?>
<!-- Generator: Adobe Illustrator 19.0.0, SVG Export Plug-In . SVG Version: 6.00 Build 0)  -->
<svg version="1.1" id="Capa_1" xmlns="http://www.w3.org/2000/svg" xmlns:xlink="http://www.w3.org/1999/xlink" x="0px" y="0px"
	 viewBox="0 0 512.001 512.001" style="enable-background:new 0 0 512.001 512.001;" xml:space="preserve">
<path style="fill:#799EE5;" d="M284.301,135.352c-25.501,25.501-57.93,88.374-26.978,119.326s93.825-1.477,119.326-26.978
	c15.163-15.163,21.298-35.924,18.426-55.627c-1.361-9.337,1.991-18.736,9.214-24.807l95.905-80.62
	c14.863-12.494,15.837-35.037,2.107-48.767L494.122,9.7c-13.73-13.73-36.273-12.756-48.767,2.107l-80.62,95.905
	c-6.072,7.223-15.47,10.576-24.807,9.214C320.225,114.054,299.464,120.189,284.301,135.352z"/>
<g>
	<path style="fill:#6E8FD1;" d="M354.407,157.594c13.196,13.196,13.196,34.668,0,47.865c-20.565,20.565-58.811,41.002-73.839,25.974
		c-15.028-15.028,5.409-53.274,25.974-73.839C319.739,144.398,341.21,144.397,354.407,157.594z"/>
	<path style="fill:#6E8FD1;" d="M412.43,107.071c-1.919,0-3.839-0.732-5.303-2.196c-2.929-2.93-2.929-7.678,0-10.607l56.343-56.344
		c2.929-2.928,7.678-2.928,10.606,0c2.929,2.93,2.929,7.678,0,10.608l-56.343,56.344
		C416.269,106.339,414.349,107.071,412.43,107.071z"/>
</g>
<circle style="fill:#F8E8B9;" cx="242.991" cy="118.87" r="112.94"/>
<path style="fill:#F0DBA5;" d="M130.05,118.875c0,62.375,50.565,112.94,112.94,112.94c51.395,0,94.741-34.342,108.42-81.321
	C220.537,189.182,165.033,78.008,205.518,12.328C161.567,27.786,130.05,69.64,130.05,118.875z"/>
<path style="fill:#B18E82;" d="M242.989,0c-48.5,0-90.196,29.052-108.68,70.698c-4.19,9.441-1.252,20.521,7.21,26.445l0,0
	c11.575,8.102,26.701,9.075,39.217,2.521l0,0c12.844-6.725,28.296-6.107,40.562,1.622h0.001c13.254,8.352,30.126,8.352,43.38,0l0,0
	c12.266-7.729,27.718-8.347,40.562-1.623l0,0c12.517,6.554,27.643,5.581,39.218-2.521l0,0c8.462-5.923,11.4-17.004,7.21-26.445
	C333.186,29.052,291.489,0,242.989,0z"/>
<path style="fill:#A38277;" d="M221.299,101.286c13.145,8.283,29.843,8.34,43.046,0.194c-38.502-7.17-55.052-70.867-41.882-99.694
	c-39.524,6.884-72.339,33.279-88.154,68.912c-4.19,9.441-1.252,20.521,7.21,26.445c11.575,8.102,26.701,9.075,39.217,2.521l0,0
	C193.581,92.938,209.033,93.556,221.299,101.286L221.299,101.286z"/>
<circle style="fill:#B18E82;" cx="357.881" cy="267.33" r="113.93"/>
<path style="fill:#A38277;" d="M243.949,267.331c0,62.924,51.01,113.934,113.934,113.934c51.847,0,95.576-34.644,109.375-82.037
	c-132.025,39.029-188.018-73.125-147.177-139.382C275.743,175.439,243.949,217.661,243.949,267.331z"/>
<circle style="fill:#EFA8B8;" cx="154.121" cy="267.33" r="113.93"/>
<path style="fill:#EB8EA3;" d="M40.185,267.331c0,62.924,51.01,113.934,113.934,113.934c51.847,0,95.576-34.644,109.375-82.037
	c-132.025,39.029-188.018-73.125-147.177-139.382C71.979,175.439,40.185,217.661,40.185,267.331z"/>
<g>
	<circle style="fill:#A38277;" cx="432.941" cy="256" r="7.502"/>
	<circle style="fill:#A38277;" cx="346.061" cy="209.6" r="7.502"/>
</g>
<circle style="fill:#EFA8B8;" cx="83.571" cy="256" r="7.502"/>
<g>
	<circle style="fill:#EB8EA3;" cx="157.081" cy="202.1" r="7.502"/>
	<circle style="fill:#EB8EA3;" cx="209.341" cy="271.62" r="7.502"/>
</g>
<circle style="fill:#F0DBA5;" cx="291.021" cy="122.38" r="7.502"/>
<circle style="fill:#F8E8B9;" cx="216.841" cy="150.15" r="7.502"/>
<path id="SVGCleanerId_0" style="fill:#F4E08F;" d="M367.369,512H144.633c-31.059,0-59.23-18.22-71.968-46.547L2.271,308.913
	c-9.249-20.567,11.404-41.861,32.244-33.245l60.002,24.806c25.83,10.678,55.1,9.12,79.651-4.24l38.98-21.213
	c26.718-14.54,58.986-14.54,85.704,0l38.98,21.213c24.55,13.36,53.821,14.918,79.651,4.24l60.002-24.806
	c20.84-8.616,41.493,12.678,32.244,33.245l-70.393,156.54C426.599,493.78,398.429,512,367.369,512z"/>
<g>
	<path id="SVGCleanerId_0_1_" style="fill:#F4E08F;" d="M367.369,512H144.633c-31.059,0-59.23-18.22-71.968-46.547L2.271,308.913
		c-9.249-20.567,11.404-41.861,32.244-33.245l60.002,24.806c25.83,10.678,55.1,9.12,79.651-4.24l38.98-21.213
		c26.718-14.54,58.986-14.54,85.704,0l38.98,21.213c24.55,13.36,53.821,14.918,79.651,4.24l60.002-24.806
		c20.84-8.616,41.493,12.678,32.244,33.245l-70.393,156.54C426.599,493.78,398.429,512,367.369,512z"/>
</g>
<g>
	<path style="fill:#EBCE72;" d="M329.165,512c-172.472-26.031-198.203-119.149-174.429-207.896
		c-19.726,5.491-40.931,4.343-60.218-3.631l-60.002-24.806c-20.84-8.616-41.493,12.678-32.244,33.245l70.393,156.54
		C85.403,493.78,113.573,512,144.633,512H329.165z"/>
	<path style="fill:#EBCE72;" d="M418.961,365.261c-1.92,0-3.839-0.732-5.303-2.196c-2.929-2.93-2.929-7.678,0-10.608l23.983-23.982
		c2.929-2.928,7.678-2.928,10.606,0c2.929,2.93,2.929,7.678,0,10.607l-23.983,23.983
		C422.799,364.528,420.88,365.261,418.961,365.261z"/>
	<path style="fill:#EBCE72;" d="M413.719,411.098c-1.919,0-3.839-0.733-5.303-2.196c-2.929-2.93-2.929-7.678,0-10.607l26.882-26.883
		c2.929-2.928,7.678-2.928,10.606,0c2.929,2.93,2.929,7.678,0,10.608l-26.882,26.883
		C417.558,410.365,415.638,411.098,413.719,411.098z"/>
</g>
<path style="fill:#F4E08F;" d="M79.791,404.959c-1.919,0-3.839-0.732-5.303-2.196c-2.929-2.93-2.929-7.678,0-10.607l15.723-15.723
	c2.929-2.93,7.678-2.929,10.606-0.001c2.929,2.93,2.929,7.678,0,10.607l-15.723,15.724C83.63,404.227,81.71,404.959,79.791,404.959z
	"/>
<path style="fill:#B18E82;" d="M409.012,444.902L409.012,444.902c-16.901,16.901-44.303,16.901-61.204,0l0,0
	c-16.901-16.901-44.303-16.901-61.204,0l0,0c-16.901,16.901-44.303,16.901-61.204,0l0,0c-16.901-16.901-44.303-16.901-61.204,0l0,0
	c-16.901,16.901-44.303,16.901-61.204,0l0,0c-11.976-11.976-29.222-15.455-44.27-10.459l13.945,31.01
	C85.403,493.78,113.573,512,144.633,512H367.37c31.059,0,59.23-18.22,71.968-46.547l13.945-31.01
	C438.233,429.447,420.988,432.926,409.012,444.902z"/>
<path style="fill:#A38277;" d="M329.165,512c-81.184-12.253-129.847-39.373-156.146-73.902c-3.152,1.838-6.123,4.102-8.825,6.803
	l0,0c-16.901,16.901-44.303,16.901-61.204,0l0,0c-11.976-11.976-29.222-15.455-44.27-10.459l13.945,31.01
	C85.403,493.78,113.573,512,144.633,512H329.165L329.165,512z"/>
<g>
	<ellipse style="fill:#E87684;" cx="161.921" cy="380.36" rx="34.712" ry="27.643"/>
	<ellipse style="fill:#E87684;" cx="350.081" cy="380.36" rx="34.712" ry="27.643"/>
</g>
<g>
	<path style="fill:#414C59;" d="M182.155,360.282c-4.142,0-7.5-3.357-7.5-7.5v-12.258c0-4.143,3.358-7.5,7.5-7.5s7.5,3.357,7.5,7.5
		v12.258C189.655,356.925,186.297,360.282,182.155,360.282z"/>
	<path style="fill:#414C59;" d="M329.847,360.282c-4.142,0-7.5-3.357-7.5-7.5v-12.258c0-4.143,3.358-7.5,7.5-7.5s7.5,3.357,7.5,7.5
		v12.258C337.347,356.925,333.989,360.282,329.847,360.282z"/>
	<path style="fill:#414C59;" d="M256.001,369.695c-9.629,0-18.786-4.17-25.123-11.441c-2.722-3.123-2.396-7.86,0.726-10.582
		c3.122-2.722,7.86-2.396,10.582,0.727c3.488,4.002,8.523,6.297,13.815,6.297c5.292,0,10.328-2.295,13.815-6.297
		c2.721-3.123,7.458-3.447,10.582-0.727c3.122,2.722,3.448,7.459,0.726,10.582C274.787,365.525,265.63,369.695,256.001,369.695z"/>
</g>
<path style="fill:#EB8EA3;" d="M94.137,351.534L94.137,351.534c-11.918,0-21.579-9.661-21.579-21.579v-40.702h43.158v40.702
	C115.716,341.872,106.055,351.534,94.137,351.534z"/>
<g>
</g>
<g>
</g>
<g>
</g>
<g>
</g>
<g>
</g>
<g>
</g>
<g>
</g>
<g>
</g>
<g>
</g>
<g>
</g>
<g>
</g>
<g>
</g>
<g>
</g>
<g>
</g>
<g>
</g>
</svg>
