<?xml version="1.0" encoding="iso-8859-1"?>
<!-- Generator: Adobe Illustrator 19.0.0, SVG Export Plug-In . SVG Version: 6.00 Build 0)  -->
<svg version="1.1" id="Capa_1" xmlns="http://www.w3.org/2000/svg" xmlns:xlink="http://www.w3.org/1999/xlink" x="0px" y="0px"
	 viewBox="0 0 512 512" style="enable-background:new 0 0 512 512;" xml:space="preserve">
<path style="fill:#FFDE55;" d="M361.606,80.311c-12.95-12.95-34.728-13.323-54.383-2.697c-8.769,4.741-19.087,5.464-28.515,2.228
	c-63.809-21.904-146.486,0.029-207.702,61.245C9.786,202.305-12.145,284.98,9.758,348.789c3.236,9.428,2.513,19.746-2.227,28.515
	c-10.626,19.655-10.253,41.433,2.697,54.383c12.95,12.95,34.728,13.323,54.383,2.697c8.769-4.741,19.087-5.464,28.515-2.227
	c63.809,21.903,146.486-0.029,207.703-61.246s83.149-143.894,61.246-207.702c-3.237-9.428-2.513-19.747,2.228-28.515
	C374.929,115.039,374.556,93.261,361.606,80.311z"/>
<path style="fill:#FFCD00;" d="M300.861,370.912c61.217-61.216,83.149-143.893,61.246-207.702
	c-3.237-9.428-2.513-19.747,2.227-28.515c5.7-10.543,8.201-21.685,7.329-31.759C301.549,105.511,199.874,131.91,163.28,256
	c-22.94,77.788-51.32,134.42-77.254,174.485c2.408,0.315,4.798,0.872,7.133,1.674C156.967,454.061,239.643,432.13,300.861,370.912z"
	/>
<circle style="fill:#FFDE55;" cx="371.833" cy="301.75" r="140.166"/>
<path style="fill:#FFF4C7;" d="M371.833,402.61c-55.615,0-100.861-45.246-100.861-100.86c0-55.615,45.246-100.861,100.861-100.861
	s100.861,45.246,100.861,100.861C472.694,357.363,427.448,402.61,371.833,402.61z"/>
<g>
	<path style="fill:#FFEB99;" d="M333.244,208.567L333.244,208.567l29.925,72.245c3.201,7.727,14.145,7.727,17.346,0l29.906-72.2
		C386.56,198.727,358.935,197.925,333.244,208.567z"/>
	<path style="fill:#FFEB99;" d="M465.015,263.16L465.015,263.16l-72.245,29.925c-7.727,3.201-7.727,14.145,0,17.346l72.2,29.906
		C474.855,316.475,475.657,288.851,465.015,263.16z"/>
	<path style="fill:#FFEB99;" d="M410.422,394.931L410.422,394.931l-29.925-72.245c-3.201-7.727-14.145-7.727-17.346,0l-29.906,72.2
		C357.107,404.771,384.731,405.573,410.422,394.931z"/>
	<path style="fill:#FFEB99;" d="M278.65,340.337L278.65,340.337l72.245-29.925c7.727-3.201,7.727-14.145,0-17.346l-72.2-29.906
		C268.81,287.023,268.008,314.647,278.65,340.337z"/>
</g>
<g>
	<path style="fill:#57565C;" d="M223.761,177.366c-3.017,3.017-7.91,3.017-10.927,0l-9.07-9.07c-3.017-3.017-3.017-7.909,0-10.927
		c3.017-3.017,7.91-3.017,10.927,0l9.07,9.07C226.779,169.457,226.779,174.349,223.761,177.366z"/>
	<path style="fill:#57565C;" d="M106.253,294.875c-3.017,3.017-7.91,3.017-10.927,0l-9.07-9.07c-3.017-3.017-3.017-7.909,0-10.927
		c3.017-3.017,7.91-3.017,10.927,0l9.07,9.07C109.27,286.966,109.27,291.857,106.253,294.875z"/>
	<path style="fill:#57565C;" d="M170.727,241.841c-7.071,7.071-16.43,11.854-26.907,13.177c-4.234,0.536-8.099-2.463-8.634-6.697
		c-0.537-4.233,2.463-8.099,6.696-8.634c13.953-1.763,24.928-12.738,26.691-26.691c0.534-4.232,4.4-7.232,8.634-6.696
		c4.234,0.535,7.233,4.4,6.697,8.634C182.582,225.411,177.799,234.77,170.727,241.841z"/>
</g>
<g>
</g>
<g>
</g>
<g>
</g>
<g>
</g>
<g>
</g>
<g>
</g>
<g>
</g>
<g>
</g>
<g>
</g>
<g>
</g>
<g>
</g>
<g>
</g>
<g>
</g>
<g>
</g>
<g>
</g>
</svg>
