<?xml version="1.0"?>
<svg xmlns="http://www.w3.org/2000/svg" xmlns:xlink="http://www.w3.org/1999/xlink" version="1.1" id="Capa_1" x="0px" y="0px" viewBox="0 0 512 512" style="enable-background:new 0 0 512 512;" xml:space="preserve" width="512px" height="512px" class=""><g><g transform="translate(0 -1)">
	<path style="fill:#F4E751" d="M273.655,212.878l-35.22-201.813c-0.4-2.911,0.669-5.831,2.855-7.795   c2.186-1.964,5.203-2.716,8.055-2.008l132.091,28.977c2.875,0.558,5.267,2.543,6.344,5.266c1.077,2.723,0.691,5.808-1.024,8.181   l-104.273,142.71" data-original="#EC9130" class="" data-old_color="#EEE153"/>
	<g>
		<path style="fill:#DF8252" d="M282.483,53.982c-2.337-0.035-4.575-0.949-6.268-2.56c-0.779-0.859-1.406-1.844-1.854-2.914    c-0.497-1.047-0.739-2.196-0.706-3.354c-0.028-3.569,2.106-6.799,5.399-8.175c3.293-1.375,7.091-0.622,9.609,1.907    c1.664,1.661,2.599,3.916,2.599,6.267s-0.935,4.606-2.599,6.267c-0.407,0.395-0.852,0.748-1.328,1.056    c-0.45,0.351-0.958,0.62-1.5,0.797c-0.528,0.266-1.096,0.445-1.681,0.53C283.603,53.906,283.044,53.965,282.483,53.982    L282.483,53.982z" data-original="#DC6C33" class="" data-old_color="#A75E39"/>
		<path style="fill:#DF8252" d="M317.793,80.464c-4.86-0.037-8.79-3.968-8.828-8.828c-0.017-2.952,1.443-5.718,3.891-7.368    c2.448-1.65,5.56-1.967,8.29-0.843c1.055,0.513,2.036,1.166,2.914,1.944c1.625,1.684,2.542,3.927,2.56,6.268    c-0.013,0.563-0.074,1.124-0.181,1.677c-0.079,0.585-0.257,1.152-0.526,1.677c-0.176,0.542-0.445,1.049-0.793,1.5    c-0.309,0.475-0.664,0.918-1.06,1.323c-0.834,0.834-1.824,1.494-2.914,1.944C320.086,80.21,318.947,80.45,317.793,80.464    L317.793,80.464z" data-original="#DC6C33" class="" data-old_color="#A75E39"/>
		<path style="fill:#DF8252" d="M291.311,115.775c-2.348,0.023-4.607-0.9-6.267-2.56c-1.66-1.66-2.583-3.919-2.56-6.267    c0.014-2.341,0.931-4.586,2.56-6.268c3.539-3.267,8.995-3.267,12.534,0c1.626,1.684,2.542,3.927,2.561,6.268    c0.023,2.348-0.9,4.607-2.56,6.267C295.917,114.875,293.659,115.798,291.311,115.775L291.311,115.775z" data-original="#DC6C33" class="" data-old_color="#A75E39"/>
	</g>
	<path style="fill:#A0C7E7;" d="M423.724,309.982l-7.437,90.622C410.5,464.26,357.128,513,293.208,513h-74.417   C154.873,513,101.5,464.26,95.713,400.603l-7.437-90.622" data-original="#A0C7E7" class=""/>
	<path style="fill:#5496CE;" d="M326.621,318.794h97.103c9.722-0.07,17.585-7.934,17.655-17.655   c-0.029-9.739-7.916-17.627-17.655-17.655H88.276c-9.722,0.07-17.585,7.934-17.655,17.655c0.029,9.739,7.916,17.627,17.655,17.655   h61.793" data-original="#5496CE" class=""/>
	<path style="fill:#F2C32D" d="M406.069,283.483c0.018-12.806-6.909-24.614-18.094-30.849c-11.186-6.235-24.872-5.915-35.754,0.835   c-5.67-40.131-37.942-71.243-78.253-75.441s-78.302,19.596-92.119,57.698c-7.157-3.452-15.005-5.233-22.952-5.208   c-29.243,0.023-52.943,23.723-52.966,52.966l26.483,0.016l0,0c4.681-0.004,9.172,1.852,12.483,5.161   c3.311,3.309,5.172,7.798,5.172,12.479v104.858c-0.213,8.882,5.944,16.652,14.64,18.475c5.132,0.874,10.387-0.556,14.37-3.908   c3.982-3.352,6.287-8.288,6.301-13.493v-34.237c-0.212-8.882,5.944-16.651,14.64-18.475c5.132-0.874,10.387,0.556,14.37,3.908   c3.982,3.352,6.287,8.288,6.301,13.493v7.754c-0.213,8.882,5.944,16.652,14.64,18.475c5.132,0.874,10.387-0.556,14.37-3.908   c3.982-3.352,6.287-8.288,6.301-13.493v-43.064c-0.212-8.882,5.944-16.651,14.64-18.475c5.132-0.874,10.387,0.556,14.37,3.908   c3.982,3.352,6.287,8.288,6.301,13.493v7.754c-0.213,8.882,5.944,16.652,14.64,18.475c5.132,0.874,10.387-0.556,14.37-3.908   c3.982-3.352,6.287-8.288,6.301-13.493v-44.138c0-9.751,7.905-17.655,17.655-17.655H406.069z" data-original="#F4CD1E" class="active-path" data-old_color="#EBC13A"/>
</g></g> </svg>
