<?xml version="1.0"?>
<svg xmlns="http://www.w3.org/2000/svg" xmlns:xlink="http://www.w3.org/1999/xlink" version="1.1" id="Capa_1" x="0px" y="0px" viewBox="0 0 512 512" style="enable-background:new 0 0 512 512;" xml:space="preserve" width="512px" height="512px" class=""><g><circle style="fill:#FCE991" cx="256" cy="256" r="256" data-original="#FBD747" class="active-path" data-old_color="#FDF5CF"/><path style="fill:#E6C54B" d="M375.802,482.275C456.813,439.294,512,354.098,512,256c0-4.368-0.111-8.711-0.328-13.026  L326.168,57.47l-11.243,39.955L256,38.5l7.013,97.951L184.032,57.47L375.802,482.275z" data-original="#E9BA13" class="" data-old_color="#F4D66A"/><path style="fill:#795548;" d="M0.18,246.863C0.073,249.897,0,252.94,0,256c0,141.385,114.615,256,256,256s256-114.615,256-256  c0-3.06-0.073-6.103-0.18-9.137H0.18z" data-original="#795548"/><path style="fill:#6D4C41;" d="M511.82,246.863H255.571v265.132c0.143,0,0.285,0.005,0.429,0.005c141.385,0,256-114.615,256-256  C512,252.94,511.927,249.897,511.82,246.863z" data-original="#6D4C41" class=""/><path style="fill:#39B54A;" d="M256,297.067L256,297.067L256,297.067c-27.666-71.401-27.666-187.166,0-258.567l0,0l0,0  C283.666,109.902,283.666,225.666,256,297.067z" data-original="#39B54A" class=""/><path style="fill:#009245;" d="M255.571,295.933c0.144,0.377,0.283,0.76,0.429,1.134l0,0l0,0  c27.666-71.401,27.666-187.166,0-258.567l0,0l0,0L255.571,295.933z" data-original="#009245" class=""/><path style="fill:#006837;" d="M255.165,306.098L255.165,306.098L255.165,306.098c-6.995-76.254,24.794-187.568,71.003-248.628l0,0  l0,0C333.163,133.724,301.374,245.038,255.165,306.098z" data-original="#006837" class=""/><path style="fill:#009245;" d="M255.035,306.098L255.035,306.098L255.035,306.098c6.995-76.254-24.794-187.568-71.003-248.628l0,0  l0,0C177.037,133.724,208.826,245.038,255.035,306.098z" data-original="#009245" class=""/><path style="fill:#E386C2;" d="M314.083,373.083c0,32.079-26.005,46.25-58.083,46.25s-58.083-14.171-58.083-46.25  S223.921,280,256,280S314.083,341.005,314.083,373.083z" data-original="#E386C2"/><path style="fill:#975981;" d="M256,280c-0.143,0-0.286,0.01-0.429,0.013v139.315c0.143,0,0.285,0.006,0.429,0.006  c32.079,0,58.083-14.171,58.083-46.25S288.079,280,256,280z" data-original="#975981"/><path style="fill:#EDAED9" d="M290.667,374.583c0-32.078-15.521-93.083-34.667-93.083s-34.667,61.005-34.667,93.083  c0,18.709,5.285,31.316,13.484,38.584l-18.605,32.525l11.718,6.703l18.761-32.798c0.515,0.143,1.034,0.273,1.559,0.391v31.761h13.5  v-31.375C278.158,417.736,290.667,403.378,290.667,374.583z" data-original="#EDAED9" class=""/><path style="fill:#E386C2;" d="M282.107,452.396l11.718-6.703l-17.97-31.415c8.952-7.058,14.811-19.994,14.811-39.694  c0-32.078-15.521-93.083-34.667-93.083c-0.143,0-0.286,0.014-0.429,0.021V410.75v10.073v30.927h6.179v-31.375  c0.619-0.1,1.233-0.217,1.841-0.351L282.107,452.396z" data-original="#E386C2"/></g> </svg>
