<?xml version="1.0"?>
<svg xmlns="http://www.w3.org/2000/svg" xmlns:xlink="http://www.w3.org/1999/xlink" version="1.1" id="Layer_1" x="0px" y="0px" viewBox="0 0 512 512" style="enable-background:new 0 0 512 512;" xml:space="preserve" width="512px" height="512px" class=""><g><path style="fill:#6E88DC" d="M502.865,188.049C473.095,79.648,373.856,0,256,0C114.615,0,0,114.615,0,256  c0,117.856,79.648,217.094,188.049,246.865L502.865,188.049z" data-original="#365F2C" class="active-path" data-old_color="#003DFF"/><path style="fill:#20162F" d="M512,256c0-23.529-3.191-46.309-9.135-67.951l-89.458-89.458L98.592,413.408l89.458,89.458  c21.641,5.944,44.422,9.135,67.951,9.135C397.385,512,512,397.384,512,256z" data-original="#20162F" class=""/><path style="fill:#FFF3AD;" d="M256,33.391L144.696,256L256,478.609c122.943,0,222.609-99.665,222.609-222.609  S378.943,33.391,256,33.391z" data-original="#FFF3AD" class=""/><path style="fill:#FFFFFF;" d="M33.391,256c0,122.943,99.665,222.609,222.609,222.609V33.391  C133.057,33.391,33.391,133.057,33.391,256z" data-original="#FFFFFF"/><path style="fill:#FFD23E;" d="M256,66.783L161.391,256L256,445.217c104.501,0,189.217-84.715,189.217-189.217  S360.501,66.783,256,66.783z" data-original="#FFD23E"/><path style="fill:#FFE376;" d="M66.783,256c0,104.503,84.716,189.217,189.217,189.217V66.783  C151.499,66.783,66.783,151.497,66.783,256z" data-original="#FFE376"/><path style="fill:#A0AD2F;" d="M165.631,200.767l-11.945-47.083c8.657-8.657,22.824-8.657,31.481,0l27.547,27.547  c8.657,8.657,8.657,22.824,0,31.481L165.631,200.767z" data-original="#A0AD2F"/><path style="fill:#F94C10;" d="M240.26,240.26l-58.212-34.204l44.433-11.053l13.779,13.768  C248.92,217.432,248.92,231.601,240.26,240.26z" data-original="#F94C10"/><path style="fill:#FA690E;" d="M193.179,228.317l-11.943-47.082c8.648-8.659,22.817-8.659,31.477,0l13.768,13.768L193.179,228.317z" data-original="#FA690E"/><path style="fill:#FFF3AD;" d="M193.176,283.686l-11.945,47.083c8.657,8.657,22.824,8.657,31.481,0l27.547-27.547  c8.657-8.657,8.657-22.824,0-31.481L193.176,283.686z" data-original="#FFF3AD" class=""/><path style="fill:#44702A;" d="M185.167,358.31c-8.659,8.659-22.829,8.659-31.477,0l23.073-69.343l22.183,55.574L185.167,358.31z" data-original="#44702A"/><path style="fill:#63842C;" d="M198.946,344.542l-33.313-33.313l47.082-11.943c8.659,8.659,8.659,22.829,0,31.488L198.946,344.542z" data-original="#63842C"/><path style="fill:#FDA409;" d="M256,256l-83.478-33.391L89.043,256c0,42.728,16.301,85.456,48.9,118.056L256,256z" data-original="#FDA409"/><rect x="178.087" y="233.739" style="fill:#FC870B;" width="22.261" height="44.522" data-original="#FC870B"/><g>
	<rect x="122.435" y="278.261" style="fill:#FFC207;" width="22.261" height="22.261" data-original="#FFC207"/>
	<path style="fill:#FFC207;" d="M137.944,137.944c-32.6,32.6-48.9,75.329-48.9,118.056H256L137.944,137.944z" data-original="#FFC207"/>
</g><rect x="144.696" y="211.478" style="fill:#FDA409;" width="22.261" height="22.261" data-original="#FDA409"/><path style="fill:#81982D;" d="M346.37,311.233l11.945,47.083c-8.657,8.657-22.824,8.657-31.481,0l-27.547-27.547  c-8.657-8.657-8.657-22.824,0-31.481L346.37,311.233z" data-original="#81982D"/><path style="fill:#F94C10;" d="M271.74,271.74l58.212,34.204l-44.433,11.053l-13.779-13.768  C263.08,294.568,263.08,280.399,271.74,271.74z" data-original="#F94C10"/><path style="fill:#F72E12;" d="M318.821,283.682l11.943,47.082c-8.648,8.659-22.817,8.659-31.477,0l-13.768-13.768L318.821,283.682z  " data-original="#F72E12"/><path style="fill:#FFF3AD;" d="M318.823,228.314l11.945-47.083c-8.657-8.657-22.824-8.657-31.481,0l-27.547,27.547  c-8.657,8.657-8.657,22.824,0,31.481L318.823,228.314z" data-original="#FFF3AD" class=""/><path style="fill:#63842C;" d="M326.833,153.69c8.659-8.659,22.829-8.659,31.477,0l-23.073,69.343l-22.183-55.574L326.833,153.69z" data-original="#63842C"/><path style="fill:#81982D;" d="M313.053,167.458l33.313,33.313l-47.082,11.943c-8.659-8.659-8.659-22.829,0-31.488L313.053,167.458z  " data-original="#81982D"/><path style="fill:#FDA409;" d="M256,256l83.478,33.391L422.957,256c0-42.728-16.301-85.456-48.9-118.056L256,256z" data-original="#FDA409"/><rect x="311.652" y="233.739" style="fill:#FFC207;" width="22.261" height="44.522" data-original="#FFC207"/><g>
	<rect x="367.304" y="211.478" style="fill:#FC870B;" width="22.261" height="22.261" data-original="#FC870B"/>
	<path style="fill:#FC870B;" d="M374.056,374.056c32.601-32.6,48.9-75.329,48.9-118.056H256L374.056,374.056z" data-original="#FC870B"/>
</g><rect x="345.043" y="278.261" style="fill:#FA690E;" width="22.261" height="22.261" data-original="#FA690E"/><path style="fill:#FFF3AD;" d="M256,66.783l-27.826,55.652L256,178.087c30.736,0,55.652-24.917,55.652-55.652  S286.736,66.783,256,66.783z" data-original="#FFF3AD" class=""/><path style="fill:#FFFFFF;" d="M200.348,122.435c0,30.736,24.917,55.652,55.652,55.652V66.783  C225.264,66.783,200.348,91.699,200.348,122.435z" data-original="#FFFFFF"/><path style="fill:#F72E12;" d="M256,89.043l-16.696,33.391L256,155.826c18.441,0,33.391-14.949,33.391-33.391  S274.441,89.043,256,89.043z" data-original="#F72E12"/><path style="fill:#F94C10;" d="M222.609,122.435c0,18.442,14.95,33.391,33.391,33.391V89.043  C237.559,89.043,222.609,103.993,222.609,122.435z" data-original="#F94C10"/><path style="fill:#FFF3AD;" d="M256,333.913l-27.826,55.652L256,445.217c30.736,0,55.652-24.917,55.652-55.652  S286.736,333.913,256,333.913z" data-original="#FFF3AD" class=""/><path style="fill:#FFFFFF;" d="M200.348,389.565c0,30.736,24.917,55.652,55.652,55.652V333.913  C225.264,333.913,200.348,358.83,200.348,389.565z" data-original="#FFFFFF"/><path style="fill:#81982D;" d="M256,356.174l-16.696,33.391L256,422.957c18.441,0,33.391-14.949,33.391-33.391  S274.441,356.174,256,356.174z" data-original="#81982D"/><path style="fill:#A0AD2F;" d="M222.609,389.565c0,18.442,14.95,33.391,33.391,33.391v-66.783  C237.559,356.174,222.609,371.123,222.609,389.565z" data-original="#A0AD2F"/></g> </svg>
