<?xml version="1.0"?>
<svg xmlns="http://www.w3.org/2000/svg" xmlns:xlink="http://www.w3.org/1999/xlink" version="1.1" id="Layer_1" x="0px" y="0px" viewBox="0 0 512 512" style="enable-background:new 0 0 512 512;" xml:space="preserve" width="512px" height="512px" class=""><g><path style="fill:#EFAC52;" d="M380.757,204.202h30.355c3.646,0,6.602-2.957,6.602-6.602V6.602c0-3.646-2.958-6.602-6.602-6.602  H26.988c-3.646,0-6.602,2.957-6.602,6.602v498.796c0,3.645,2.958,6.602,6.602,6.602h384.124c3.646,0,6.602-2.957,6.602-6.602  V252.633c0-3.646-2.958-6.602-6.602-6.602h-30.355c-3.646,0-6.602,2.957-6.602,6.602v205.256c0,6.371-5.182,11.554-11.554,11.554  H75.498c-6.372,0-11.554-5.183-11.554-11.554V54.113c0-6.371,5.182-11.554,11.554-11.554h287.103  c6.372,0,11.554,5.183,11.554,11.554V197.6C374.155,201.247,377.112,204.202,380.757,204.202z" data-original="#EFAC52" class=""/><path style="fill:#AEAD70" d="M362.158,40.027H75.498c-7.293,0-13.204,5.912-13.204,13.204v164.274  c0.857-0.955,1.613-2.152,2.248-3.62c13.786-31.912,47.834-27.838,47.834-27.838h262.987V53.231  C375.362,45.939,369.45,40.027,362.158,40.027z" data-original="#A4A4A5" class="active-path" data-old_color="#C6C475"/><g style="opacity:0.15;">
	<path style="fill:#202020;" d="M81.053,53.231c0-7.292,5.911-13.204,13.204-13.204H75.498c-7.293,0-13.204,5.912-13.204,13.204   v164.274c0.857-0.955,1.613-2.152,2.248-3.62c4.156-9.622,10.159-15.956,16.511-20.133C81.053,193.751,81.053,53.231,81.053,53.231   z" data-original="#202020"/>
	<path style="fill:#202020;" d="M123.218,186.046h7.916C131.134,186.046,127.98,185.675,123.218,186.046z" data-original="#202020"/>
</g><g>
	<path style="fill:#B0C9E4" d="M169.248,67.107c-1.888,0.088-3.598,1.139-4.53,2.784l-6.805,12.013l-15.998-19.768   c-1.062-1.312-2.652-2.065-4.359-2.04c-1.688,0.024-3.272,0.824-4.296,2.168c-27.299,35.857-42.225,78.62-43.166,123.669   c-0.031,1.479,0.535,2.908,1.569,3.965c1.035,1.057,2.453,1.653,3.931,1.653h110.842c1.48,0,2.897-0.595,3.931-1.653   c1.035-1.056,1.601-2.486,1.571-3.965c-0.875-41.879-13.988-82.155-37.92-116.476C172.939,67.906,171.142,67.014,169.248,67.107z" data-original="#897249" class="" data-old_color="#95ACC5"/>
	<path style="fill:#B0C9E4" d="M313.523,69.455c-1.081-1.548-2.882-2.436-4.77-2.348c-1.888,0.088-3.599,1.139-4.529,2.784   l-6.805,12.013l-15.998-19.768c-1.064-1.312-2.652-2.065-4.359-2.04c-1.689,0.024-3.274,0.824-4.296,2.168   c-27.299,35.855-42.227,78.618-43.168,123.668c-0.032,1.479,0.535,2.908,1.569,3.965c1.035,1.057,2.453,1.653,3.931,1.653h110.844   c1.479,0,2.895-0.595,3.93-1.653c1.034-1.056,1.601-2.486,1.569-3.965C350.568,144.053,337.456,103.777,313.523,69.455z" data-original="#897249" class="" data-old_color="#95ACC5"/>
</g><g>
	<path style="fill:#60779B" d="M345.891,141.895c-6.115-26.032-17.004-50.406-32.368-72.439c-1.081-1.549-2.882-2.437-4.77-2.349   c-1.888,0.088-3.599,1.139-4.529,2.784l-6.805,12.013l-15.998-19.768c-1.064-1.312-2.665-2.091-4.359-2.04   c-1.689,0.024-3.274,0.824-4.296,2.168c-16.383,21.52-28.337,45.569-35.529,71.485c-0.642,2.309,0.287,4.767,2.292,6.076   c17.13,11.193,37.694,17.11,59.464,17.11c5.088,0,10.197-0.335,15.185-0.993c0.243-0.032,0.482-0.08,0.717-0.144l27.077-7.334   C344.836,147.689,346.569,144.784,345.891,141.895z" data-original="#A08B6A" class="" data-old_color="#0063FF"/>
	<path style="fill:#60779B" d="M174.019,69.456c-1.081-1.549-2.88-2.437-4.771-2.349c-1.888,0.088-3.598,1.139-4.53,2.784   l-6.805,12.013l-15.998-19.768c-1.062-1.312-2.669-2.091-4.359-2.04c-1.689,0.024-3.272,0.824-4.296,2.168   c-16.383,21.52-28.337,45.569-35.527,71.485c-0.64,2.309,0.286,4.767,2.292,6.076c17.132,11.193,37.693,17.11,59.464,17.11   c5.088,0,10.198-0.335,15.185-0.993c0.242-0.032,0.483-0.08,0.717-0.144l27.077-7.334c2.864-0.776,4.596-3.681,3.918-6.569   C200.272,115.863,189.382,91.491,174.019,69.456z" data-original="#A08B6A" class="" data-old_color="#0063FF"/>
</g><path style="fill:#ECF023" d="M109.441,186.046c0,0-32.96-3.921-47.147,26.37v247.885c0,7.292,5.911,13.204,13.204,13.204h286.661  c7.292,0,13.204-5.912,13.204-13.204V186.046L109.441,186.046L109.441,186.046z" data-original="#DCE0E2" class="" data-old_color="#E1E52A"/><g>
	<path style="fill:#AEAD70" d="M270.344,386.092H166.409c-4.558,0-8.253-3.694-8.253-8.253c0-4.559,3.695-8.253,8.253-8.253   h103.935c4.558,0,8.253,3.694,8.253,8.253C278.597,382.397,274.902,386.092,270.344,386.092z" data-original="#A4A4A5" class="active-path" data-old_color="#C6C475"/>
	<path style="fill:#AEAD70" d="M270.432,421.55H166.5c-4.559,0-8.253-3.695-8.253-8.253c0-4.559,3.694-8.253,8.253-8.253h103.933   c4.559,0,8.253,3.694,8.253,8.253C278.685,417.855,274.991,421.55,270.432,421.55z" data-original="#A4A4A5" class="active-path" data-old_color="#C6C475"/>
</g><g>
	<circle style="fill:#00A8FF" cx="137.843" cy="118.641" r="10.126" data-original="#493825" class="" data-old_color="#493825"/>
	<circle style="fill:#00A8FF" cx="277.347" cy="118.641" r="10.126" data-original="#493825" class="" data-old_color="#493825"/>
</g><path style="fill:#FFD800" d="M454.602,186.264c-7.166,0-345.161-0.218-345.161-0.218s35.314,9.06,35.314,38.807  c0,16.038-6.805,27.364-14.94,34.406l0.001,0.002c0,0-7.062,8.904,6.142,8.904h320.261c0,0,35.395-8.157,35.395-40.847  S461.769,186.264,454.602,186.264z" data-original="#C5CED1" class="" data-old_color="#C5CED1"/></g> </svg>
