<?xml version="1.0" encoding="iso-8859-1"?>
<!-- Generator: Adobe Illustrator 19.0.0, SVG Export Plug-In . SVG Version: 6.00 Build 0)  -->
<svg version="1.1" id="Capa_1" xmlns="http://www.w3.org/2000/svg" xmlns:xlink="http://www.w3.org/1999/xlink" x="0px" y="0px"
	 viewBox="0 0 511.999 511.999" style="enable-background:new 0 0 511.999 511.999;" xml:space="preserve">
<path style="fill:#FFC266;" d="M407.361,212.17l-81.323-5.083c17.002-17.752,26.689-41.434,26.689-66.772
	c0-53.335-43.391-96.726-96.727-96.726s-96.726,43.391-96.726,96.726c0,25.338,9.687,49.019,26.689,66.772l-81.324,5.083
	c-26.901,1.681-47.974,24.113-47.974,51.066s21.073,49.384,47.974,51.065l68.2,4.262L144.077,445.79
	c-3.773,13.112-2.289,26.921,4.2,38.95c6.577,12.191,17.507,21.091,30.778,25.059c13.269,3.97,27.292,2.534,39.484-4.043
	c12.191-6.576,21.091-17.507,25.059-30.778L256,433.519l12.401,41.458c3.97,13.271,12.87,24.202,25.06,30.778
	c7.674,4.14,16.072,6.244,24.553,6.243c4.991,0,10.014-0.729,14.93-2.2c13.27-3.97,24.201-12.87,30.778-25.06
	c6.489-12.027,7.973-25.839,4.2-38.951l-28.762-127.224l68.2-4.262c26.901-1.681,47.974-24.112,47.974-51.066
	C455.336,236.283,434.263,213.851,407.361,212.17z"/>
<path style="fill:#E3A342;" d="M407.361,212.17l-81.323-5.083c17.002-17.752,26.689-41.434,26.689-66.772
	c0-53.335-43.391-96.726-96.727-96.726v389.93l12.401,41.458c3.97,13.271,12.87,24.202,25.06,30.778
	c7.674,4.14,16.072,6.244,24.553,6.243c4.991,0,10.014-0.729,14.93-2.2c13.27-3.97,24.201-12.87,30.778-25.06
	c6.489-12.027,7.973-25.839,4.2-38.951l-28.762-127.224l68.2-4.262c26.901-1.681,47.974-24.112,47.974-51.066
	C455.336,236.283,434.263,213.851,407.361,212.17z"/>
<path style="fill:#FF4F19;" d="M374.815,41.322l9.56-31.401c-3.58-0.273-103.621-9.224-130.652-9.224
	c-53.771,0-97.517,43.746-97.517,97.517v11.927H351.24V98.214c0-8.976-2.773-20.372-8.255-33.961L374.815,41.322z"/>
<path style="fill:#DC3910;" d="M374.815,41.322l9.56-31.401c-3.484-0.266-99.126-8.882-128.339-9.21v109.43h95.204V98.214
	c0-8.976-2.773-20.372-8.255-33.961L374.815,41.322z"/>
<path style="fill:#EFEFF0;" d="M394.489,0c-20.59,0-37.34,16.75-37.34,37.34s16.75,37.34,37.34,37.34s37.34-16.75,37.34-37.34
	S415.079,0,394.489,0z"/>
<path style="fill:#DFDEE0;" d="M394.489,74.68c20.59,0,37.34-16.75,37.34-37.34S415.079,0,394.489,0"/>
<rect x="146.287" y="90.773" style="fill:#EFEFF0;" width="218.249" height="46.248"/>
<rect x="256.002" y="90.773" style="fill:#DFDEE0;" width="108.533" height="46.248"/>
<rect x="240.977" y="257.555" style="fill:#FF4F19;" width="30.051" height="30.051"/>
<rect x="256.002" y="257.555" style="fill:#DC3910;" width="15.025" height="30.051"/>
<g>
</g>
<g>
</g>
<g>
</g>
<g>
</g>
<g>
</g>
<g>
</g>
<g>
</g>
<g>
</g>
<g>
</g>
<g>
</g>
<g>
</g>
<g>
</g>
<g>
</g>
<g>
</g>
<g>
</g>
</svg>
