<?xml version="1.0" encoding="utf-8"?>
<!-- Designed by Vexels.com - 2016 All Rights Reserved - https://vexels.com/terms-and-conditions/  -->

<svg version="1.1" id="Layer_1" xmlns="http://www.w3.org/2000/svg" xmlns:xlink="http://www.w3.org/1999/xlink" x="0px" y="0px"
	 width="1200px" height="1200px" viewBox="0 0 1200 1200" enable-background="new 0 0 1200 1200" xml:space="preserve">
<g>
	<circle fill="#F49913" cx="598.613" cy="591.301" r="541.301"/>
	<g>
		<defs>
			<circle id="SVGID_1_" cx="601.387" cy="591.301" r="541.301"/>
		</defs>
		<clipPath id="SVGID_2_">
			<use xlink:href="#SVGID_1_"  overflow="visible"/>
		</clipPath>
		<path opacity="0.2" clip-path="url(#SVGID_2_)" d="M438.25,850l162.675,300l381.554-38.163c0,0,123.992-210.94,125.633-215.864
			c1.641-4.923-251.755-505.821-251.755-505.821l-80.984-14.289l-50.072,87.221l-88.839,232.599L438.25,850z"/>
	</g>
	<g>
		<path fill-rule="evenodd" clip-rule="evenodd" fill="#3FAE5C" d="M516.315,929.954c66.747,49.398,127.309,64.752,161.566,32.798
			c123.992-115.641-99.955-303.685-146.659-403.877c-62.775-134.663-113.644-255.439-145.495-249.128
			C246.363,337.424,351.285,807.821,516.315,929.954z"/>
		<g>
			<defs>
				<path id="SVGID_3_" d="M516.315,929.954c66.747,49.398,127.309,64.752,161.566,32.798
					c123.992-115.641-99.955-303.685-146.659-403.877c-62.775-134.663-113.644-255.439-145.495-249.128
					C246.363,337.424,351.285,807.821,516.315,929.954z"/>
			</defs>
			<clipPath id="SVGID_4_">
				<use xlink:href="#SVGID_3_"  overflow="visible"/>
			</clipPath>
			<g clip-path="url(#SVGID_4_)">
				<path fill-rule="evenodd" clip-rule="evenodd" fill="#7FC188" d="M348.042,338.3c0.347-2.659,2.781-4.528,5.432-4.174
					c2.651,0.339,4.521,2.77,4.178,5.42c-16.718,127.317,10.715,261.333,61.051,373.075
					c54.787,121.613,136.533,216.614,217.727,247.471c2.505,0.947,3.771,3.74,2.824,6.248c-0.939,2.509-3.736,3.771-6.241,2.825
					c-83.596-31.757-167.361-128.706-223.166-252.56C358.859,603.388,331.075,467.527,348.042,338.3z"/>
				<path fill-rule="evenodd" clip-rule="evenodd" fill="#7FC188" d="M355.541,340.502c-0.197-3.211,2.236-5.973,5.448-6.17
					c3.207-0.197,5.969,2.233,6.174,5.444c9.377,143.215,50.719,274.336,101.395,378.133
					c66.275,135.775,147.728,224.314,193.758,231.25c3.183,0.473,5.377,3.432,4.895,6.627c-0.477,3.18-3.443,5.373-6.623,4.884
					c-49.229-7.409-134.556-98.456-202.51-237.664C406.845,618.056,365.037,485.436,355.541,340.502z"/>
				<path fill-rule="evenodd" clip-rule="evenodd" fill="#7FC188" d="M383.546,323.61c-0.935-2.517,0.339-5.302,2.844-6.225
					c2.513-0.947,5.294,0.339,6.229,2.832c23.93,63.853,51.051,129.653,78.46,189.402c25.25,55.054,50.743,104.957,74.183,143.428
					c27.91,45.824,55.832,84.192,79.947,117.337c42.057,57.808,72.689,99.916,72.668,139.577c0,2.667-2.165,4.837-4.836,4.837
					c-2.675,0-4.844-2.17-4.844-4.837c0.019-36.474-29.844-77.509-70.851-133.882c-24.186-33.239-52.182-71.718-80.361-117.975
					c-23.614-38.747-49.283-89.021-74.712-144.462C434.774,453.696,407.555,387.667,383.546,323.61z"/>
				<path fill-rule="evenodd" clip-rule="evenodd" fill="#7FC188" d="M372.958,327.018c-0.805-3.653,1.504-7.274,5.156-8.079
					c3.657-0.805,7.27,1.508,8.079,5.152c8.423,37.737,18.245,80.311,29.607,122.339c11.223,41.548,23.862,82.069,37.926,115.743
					c71.836,171.989,167.839,294.209,211.671,350.03c8.131,10.351,14.49,18.462,18.593,24.166c2.185,3.053,1.483,7.298-1.571,9.491
					c-3.049,2.185-7.298,1.491-9.483-1.57c-4.059-5.65-10.28-13.57-18.222-23.694c-44.19-56.261-140.962-179.484-213.532-353.209
					c-14.332-34.313-27.149-75.394-38.514-117.447C391.432,408.377,381.51,365.323,372.958,327.018z"/>
			</g>
		</g>
		<path fill-rule="evenodd" clip-rule="evenodd" fill="#069045" d="M391.12,318.884c0,19.022-17.042,22.959-32.703,27.173
			c-3.136,0.844-10.58,2.572-11.034-1.665c-7.061-11.795-15.381-26.367-19.547-39.038c-3.468-10.549,52.968-35.551,54.881-13.2
			C382.729,292.295,391.057,318.805,391.12,318.884z"/>
		<path fill-rule="evenodd" clip-rule="evenodd" fill="#7FC188" d="M712.782,886.876c-16.647,15.787-27.034,35.702-47.638,54.116
			c-18.226,16.284-44.022,22.706-50.98,32.963c-8.868,13.089,39.09,11.211,73.359-11.519
			C708.624,948.432,727.891,886.995,712.782,886.876z"/>
	</g>
	<path opacity="0.2" d="M646.903,361.599l41.259,107.277c0,0,34.383-52.261,33.006-56.388c-1.377-4.126-39.883-56.388-39.883-56.388
		L646.903,361.599z"/>
	<g>
		<path fill-rule="evenodd" clip-rule="evenodd" fill="#3FAE5C" d="M584.952,839.593c28.017,67.016,73.84,105.825,127.98,93.312
			c165.583-38.321,133.601-207.928,121.79-324.246c-26.442-2.076-43.82-3.495-90.164-23.686
			c-29.496-12.852-75.304-46.336-79.982-73.303c-0.182-1.065-8.091-15.291-14.861-28.395
			C587.875,604.667,550.193,756.418,584.952,839.593z"/>
		<g>
			<defs>
				<path id="SVGID_5_" d="M584.952,839.593c28.017,67.016,73.84,105.825,127.98,93.312
					c165.583-38.321,133.601-207.928,121.79-324.246c-26.442-2.076-43.82-3.495-90.164-23.686
					c-29.496-12.852-75.304-46.336-79.982-73.303c-0.182-1.065-8.091-15.291-14.861-28.395
					C587.875,604.667,550.193,756.418,584.952,839.593z"/>
			</defs>
			<clipPath id="SVGID_6_">
				<use xlink:href="#SVGID_5_"  overflow="visible"/>
			</clipPath>
			<g clip-path="url(#SVGID_6_)">
				<path fill-rule="evenodd" clip-rule="evenodd" fill="#7FC188" d="M795.64,303.719c1.949-2.217,5.369-3.502,7.649-2.896
					c2.292,0.6,2.548,2.896,0.591,5.137c-92.554,104.744-148.402,220.456-171.669,324.198
					c-26.016,115.972-12.781,223.478,42.289,282.406c1.783,1.87,1.163,4.836-1.381,6.58c-2.525,1.76-5.992,1.634-7.752-0.229
					c-56.168-60.711-69.631-170.213-43.098-287.85C645.877,526.408,702.273,409.616,795.64,303.719z"/>
				<path fill-rule="evenodd" clip-rule="evenodd" fill="#7FC188" d="M801.31,306.505c1.783-2.746,5.783-4.829,8.939-4.608
					c3.168,0.221,4.284,2.635,2.489,5.396c-79.26,122.938-121.806,241.135-139.952,340.862
					c-24.51,134.702-5.728,240.654,33.886,266.027c2.805,1.783,3.002,5.333,0.406,7.905c-2.572,2.572-6.951,3.187-9.732,1.389
					c-42.005-27.267-62.278-136.532-37.035-273.988C678.726,549.17,721.623,430.256,801.31,306.505z"/>
				<path fill-rule="evenodd" clip-rule="evenodd" fill="#7FC188" d="M838.569,295.317c0.654-2.265,3.648-4.528,6.678-5.058
					c3.034-0.528,4.963,0.907,4.292,3.203c-16.994,58.7-32.316,120.271-43.67,177.457c-10.619,53.437-17.818,103.158-19.701,143.049
					c-2.276,48.294,0.371,90.898,2.683,128.39c4.142,66.961,7.243,117.021-20.021,152.581c-1.811,2.391-5.538,3.392-8.28,2.232
					c-2.737-1.144-3.471-4.015-1.652-6.383c24.9-32.545,22.032-81.122,18.181-146.134c-2.213-37.429-4.738-79.995-2.358-128.548
					c1.976-40.018,9.274-89.896,20.004-143.484C806.165,415.502,821.527,353.977,838.569,295.317z"/>
				<path fill-rule="evenodd" clip-rule="evenodd" fill="#7FC188" d="M826.205,297.045c1.511-3.251,5.988-6.099,10.02-6.375
					c4.048-0.292,6.119,2.139,4.604,5.397c-15.559,33.744-32.834,71.899-48.317,109.928c-15.35,37.65-28.778,74.826-36.605,106.631
					c-40.928,165.874-27.846,304.095-21.562,370.488c1.188,12.569,2.126,22.438,2.403,29.255c0.137,3.661-3.44,7.101-7.973,7.685
					c-4.513,0.583-8.276-1.878-8.398-5.523c-0.245-6.73-1.121-16.317-2.221-28.514c-6.04-66.558-18.596-205.15,22.742-371.695
					c8.005-32.214,21.547-69.674,37.003-107.553C793.143,369.41,810.501,331.073,826.205,297.045z"/>
			</g>
		</g>
		<path fill-rule="evenodd" clip-rule="evenodd" fill="#7FC188" d="M800.323,880.628c-28.3,7.053-52.487,20.316-85.446,27.638
			c-28.493,6.343-57.134,0.907-70.187,6.714c-16.505,7.362,29.473,26.494,78.046,21.941
			C753.58,934.018,816.355,887.255,800.323,880.628z"/>
		<path fill-rule="evenodd" clip-rule="evenodd" fill="#3FAE5C" d="M846.861,621.559c-26.305,35.322-97.404,34.068-155.382-0.434
			c-54.392-32.356-77.749-82.788-55.05-114.584c22.857-32.017,85.789-35.992,143.637-7.069
			C841.823,530.345,873.374,585.968,846.861,621.559z"/>
		<path fill-rule="evenodd" clip-rule="evenodd" fill="#BFD99A" d="M857.362,611.231c-26.411,35.417-97.971,34.463-156.396,0.213
			c-54.79-32.135-78.404-82.432-55.626-114.323c22.939-32.135,86.262-36.379,144.54-7.708
			C852.088,520.002,883.97,575.514,857.362,611.231z"/>
		<path fill-rule="evenodd" clip-rule="evenodd" fill="#F0F2E5" d="M835.89,599.657c-21.306,28.711-79.15,28.38-126.918,0.789
			c-45.319-26.163-65.154-67.639-46.274-94.007c18.983-26.486,71.316-29.633,118.982-5.775
			C831.961,525.801,857.315,570.772,835.89,599.657z"/>
		<g>
			<path fill-rule="evenodd" clip-rule="evenodd" fill="#3FAE5C" d="M834.052,587.286c-29.741,33.247-95.789,27.993-145.204-9.381
				c-46.743-35.37-61.914-87.316-35.898-117.967c26.281-30.952,86.618-30.959,136.962,1.878
				C843.208,496.538,864.124,553.723,834.052,587.286z"/>
			<path fill-rule="evenodd" clip-rule="evenodd" fill="#BFD99A" d="M845.389,577.715c-29.886,33.35-96.409,28.356-146.241-8.868
				c-47.129-35.205-62.514-87.095-36.395-117.874c26.387-31.07,87.13-31.307,137.909,1.341
				C854.415,486.841,875.591,543.97,845.389,577.715z"/>
			<path fill-rule="evenodd" clip-rule="evenodd" fill="#F0F2E5" d="M821.925,561.431c-22.509,25.318-72.83,22.012-111.048-6.044
				c-36.612-26.896-48.825-67.031-28.514-90.803c20.462-23.969,67.411-23.74,106.169,1.649
				C829.022,492.719,844.628,535.916,821.925,561.431z"/>
			<g>
				<path fill-rule="evenodd" clip-rule="evenodd" fill="#7FC188" d="M773.423,494.581c3.12-1.697,7.59-4.679,8.028-7.132
					c0.382-2.233-3.436-4.008-5.724-2.698c-2.371,1.349-4.221,5.293-5.302,7.48C768.476,496.167,771.202,495.772,773.423,494.581z"
					/>
				<path fill-rule="evenodd" clip-rule="evenodd" fill="#7FC188" d="M759.726,487.859c0.872-3.274,1.661-8.111-0.071-9.381
					c-1.578-1.144-5.878,1.428-6.458,3.795c-0.599,2.509,1.314,5.491,2.374,7.228C757.411,492.608,759.107,490.155,759.726,487.859z
					"/>
				<path fill-rule="evenodd" clip-rule="evenodd" fill="#7FC188" d="M741.745,490.368c-1.566-2.407-4.327-5.602-6.718-5.058
					c-2.17,0.528-4.052,5.01-2.849,6.69c1.243,1.823,5.018,2.067,7.161,2.281C743.134,494.621,742.846,492.072,741.745,490.368z"/>
				<path fill-rule="evenodd" clip-rule="evenodd" fill="#7FC188" d="M765.371,529.241c-0.923,3.448-1.744,8.576,0.091,9.973
					c1.688,1.278,6.252-1.349,6.852-3.866c0.639-2.675-1.408-5.925-2.529-7.796C767.809,524.231,766.042,526.802,765.371,529.241z"
					/>
				<path fill-rule="evenodd" clip-rule="evenodd" fill="#7FC188" d="M776.974,518.519c1.806,2.532,4.982,5.878,7.57,5.215
					c2.374-0.576,4.216-5.413,2.824-7.203c-1.475-1.878-5.621-2.051-7.968-2.193C775.277,514.053,775.703,516.743,776.974,518.519z"
					/>
				<path fill-rule="evenodd" clip-rule="evenodd" fill="#7FC188" d="M782.034,504.483c3.333,0.197,8.458-0.087,10.257-2.265
					c1.656-1.996-0.146-6.083-2.608-6.147c-2.611-0.063-6.332,2.738-8.486,4.276C777.415,503.078,779.675,504.341,782.034,504.483z"
					/>
				<path fill-rule="evenodd" clip-rule="evenodd" fill="#7FC188" d="M731.248,507.379c-2.501-1.673-6.556-3.645-8.892-2.312
					c-2.158,1.231-2.611,6.012-0.769,7.164c1.965,1.223,6.087,0.134,8.45-0.426C734.203,510.802,733.012,508.569,731.248,507.379z"
					/>
				<path fill-rule="evenodd" clip-rule="evenodd" fill="#7FC188" d="M732.542,522.968c-3.321,1.278-8.142,3.7-8.962,6.249
					c-0.742,2.303,2.682,4.876,5.096,3.874c2.568-1.058,4.986-4.932,6.43-7.109C737.643,522.116,734.893,522.077,732.542,522.968z"
					/>
				<path fill-rule="evenodd" clip-rule="evenodd" fill="#7FC188" d="M744.744,533.406c-1.811,3.274-3.969,8.284-2.71,10.218
					c1.159,1.775,5.995,0.379,7.238-2.028c1.334-2.548,0.383-6.438-0.095-8.663C748.322,529.004,745.998,531.118,744.744,533.406z"
					/>
			</g>
		</g>
		<g>
			<path fill-rule="evenodd" clip-rule="evenodd" fill="#3FAE5C" d="M885.304,554.448c-29.508,30.242-100.385,20.695-155.677-18.895
				c-52.313-37.469-72.014-88.87-46.309-116.84c25.973-28.261,90.401-24.182,146.371,11.062
				C888.953,467.061,915.155,523.931,885.304,554.448z"/>
			<path fill-rule="evenodd" clip-rule="evenodd" fill="#BFD99A" d="M896.772,545.943c-29.662,30.336-101.037,20.994-156.758-18.486
				c-52.716-37.318-72.645-88.713-46.83-116.793c26.075-28.347,90.918-24.473,147.353,10.612
				C900.263,458.422,926.737,515.268,896.772,545.943z"/>
			<path fill-rule="evenodd" clip-rule="evenodd" fill="#F0F2E5" d="M870.609,528.562c-22.328,23.022-76.286,16.427-118.978-13.373
				c-40.916-28.561-56.676-68.302-36.596-90.006c20.245-21.862,70.385-18.454,113.486,8.789
				C873.548,462.399,893.13,505.343,870.609,528.562z"/>
			<g>
				<path fill-rule="evenodd" clip-rule="evenodd" fill="#7FC188" d="M814.304,460.434c3.215-1.428,7.787-4.008,8.09-6.359
					c0.257-2.146-3.948-4.126-6.288-3.022c-2.454,1.167-4.15,4.852-5.163,6.911C809.12,461.649,812.02,461.452,814.304,460.434z"/>
				<path fill-rule="evenodd" clip-rule="evenodd" fill="#7FC188" d="M799.223,452.994c0.717-3.109,1.222-7.748-0.718-9.089
					c-1.752-1.23-6.17,0.978-6.631,3.227c-0.473,2.399,1.775,5.42,3.022,7.172C797.073,457.444,798.714,455.187,799.223,452.994z"/>
				<path fill-rule="evenodd" clip-rule="evenodd" fill="#7FC188" d="M780.18,454.225c-1.826-2.446-4.998-5.728-7.507-5.365
					c-2.276,0.371-3.98,4.591-2.592,6.311c1.46,1.831,5.499,2.344,7.8,2.683C781.963,458.446,781.487,455.929,780.18,454.225z"/>
				<path fill-rule="evenodd" clip-rule="evenodd" fill="#7FC188" d="M808.047,493.516c-0.75,3.266-1.286,8.198,0.773,9.681
					c1.886,1.357,6.58-0.884,7.053-3.298c0.505-2.556-1.909-5.839-3.227-7.724C810.319,488.837,808.591,491.188,808.047,493.516z"/>
				<path fill-rule="evenodd" clip-rule="evenodd" fill="#7FC188" d="M819.716,483.898c2.099,2.588,5.708,6.051,8.434,5.586
					c2.493-0.41,4.138-4.978,2.529-6.816c-1.704-1.917-6.142-2.359-8.655-2.667C817.602,479.464,818.237,482.099,819.716,483.898z"
					/>
				<path fill-rule="evenodd" clip-rule="evenodd" fill="#7FC188" d="M824.162,470.644c3.586,0.402,9.037,0.489,10.809-1.507
					c1.629-1.839-0.572-5.933-3.203-6.147c-2.793-0.245-6.58,2.233-8.77,3.574C819.152,468.963,821.633,470.344,824.162,470.644z"/>
				<path fill-rule="evenodd" clip-rule="evenodd" fill="#7FC188" d="M770.137,470.004c-2.797-1.791-7.255-3.977-9.661-2.841
					c-2.214,1.049-2.383,5.649-0.328,6.912c2.178,1.31,6.505,0.536,8.99,0.134C773.517,473.539,772.101,471.291,770.137,470.004z"/>
				<path fill-rule="evenodd" clip-rule="evenodd" fill="#7FC188" d="M772.57,485.224c-3.459,1.002-8.453,3.03-9.152,5.436
					c-0.627,2.193,3.199,4.915,5.701,4.127c2.674-0.869,5.002-4.458,6.391-6.47C777.959,484.742,775.021,484.506,772.57,485.224z"/>
				<path fill-rule="evenodd" clip-rule="evenodd" fill="#7FC188" d="M786.302,496.167c-1.712,3.053-3.672,7.755-2.205,9.728
					c1.361,1.798,6.426,0.773,7.59-1.476c1.251-2.398-0.027-6.225-0.686-8.418C789.826,492.128,787.49,494.029,786.302,496.167z"/>
			</g>
		</g>
		<g>
			<path fill-rule="evenodd" clip-rule="evenodd" fill="#3FAE5C" d="M837.089,443.968c-26.636,27.283-90.611,18.675-140.505-17.057
				c-47.201-33.816-64.988-80.215-41.784-105.454c23.437-25.492,81.588-21.831,132.099,10.012
				C840.379,365.094,864.025,416.425,837.089,443.968z"/>
			<path fill-rule="evenodd" clip-rule="evenodd" fill="#BFD99A" d="M847.436,436.283c-26.765,27.378-91.186,18.952-141.475-16.679
				c-47.571-33.682-65.556-80.066-42.261-105.408c23.531-25.57,82.057-22.083,132.986,9.586
				C850.589,357.299,874.487,408.598,847.436,436.283z"/>
			<path fill-rule="evenodd" clip-rule="evenodd" fill="#F0F2E5" d="M823.831,420.606c-20.151,20.774-68.85,14.817-107.384-12.079
				c-36.925-25.768-51.15-61.635-33.023-81.217c18.265-19.724,63.516-16.663,102.421,7.921
				C826.478,360.889,844.151,399.643,823.831,420.606z"/>
			<g>
				<path fill-rule="evenodd" clip-rule="evenodd" fill="#7FC188" d="M773.008,359.122c2.908-1.294,7.03-3.63,7.302-5.744
					c0.237-1.941-3.566-3.724-5.672-2.714c-2.213,1.041-3.752,4.363-4.666,6.225C768.338,360.21,770.95,360.021,773.008,359.122z"/>
				<path fill-rule="evenodd" clip-rule="evenodd" fill="#7FC188" d="M759.399,352.407c0.646-2.808,1.104-6.998-0.647-8.205
					c-1.582-1.112-5.567,0.876-5.984,2.919c-0.431,2.154,1.601,4.884,2.726,6.478C757.466,356.415,758.941,354.38,759.399,352.407z"
					/>
				<path fill-rule="evenodd" clip-rule="evenodd" fill="#7FC188" d="M742.227,353.504c-1.657-2.186-4.517-5.152-6.778-4.837
					c-2.063,0.339-3.602,4.142-2.347,5.689c1.314,1.68,4.966,2.13,7.034,2.438C743.832,357.314,743.39,355.058,742.227,353.504z"/>
				<path fill-rule="evenodd" clip-rule="evenodd" fill="#7FC188" d="M767.363,388.96c-0.671,2.967-1.163,7.417,0.698,8.742
					c1.697,1.23,5.937-0.797,6.371-2.967c0.45-2.296-1.724-5.263-2.915-6.967C769.411,384.747,767.856,386.878,767.363,388.96z"/>
				<path fill-rule="evenodd" clip-rule="evenodd" fill="#7FC188" d="M777.896,380.298c1.898,2.327,5.156,5.452,7.606,5.033
					c2.252-0.371,3.736-4.481,2.288-6.138c-1.534-1.743-5.538-2.146-7.807-2.422C775.987,376.297,776.559,378.672,777.896,380.298z"
					/>
				<path fill-rule="evenodd" clip-rule="evenodd" fill="#7FC188" d="M781.908,368.321c3.235,0.387,8.158,0.442,9.756-1.349
					c1.468-1.656-0.516-5.341-2.9-5.546c-2.513-0.221-5.929,2.004-7.905,3.227C777.387,366.814,779.628,368.061,781.908,368.321z"/>
				<path fill-rule="evenodd" clip-rule="evenodd" fill="#7FC188" d="M733.146,367.761c-2.517-1.633-6.537-3.606-8.715-2.564
					c-2,0.939-2.15,5.097-0.292,6.225c1.961,1.192,5.874,0.498,8.103,0.134C736.203,370.941,734.921,368.905,733.146,367.761z"/>
				<path fill-rule="evenodd" clip-rule="evenodd" fill="#7FC188" d="M735.351,381.497c-3.128,0.899-7.637,2.73-8.268,4.907
					c-0.557,1.973,2.896,4.427,5.148,3.716c2.418-0.789,4.513-4.024,5.767-5.847C740.211,381.047,737.564,380.85,735.351,381.497z"
					/>
				<path fill-rule="evenodd" clip-rule="evenodd" fill="#7FC188" d="M747.734,391.367c-1.53,2.753-3.309,6.998-1.984,8.789
					c1.227,1.617,5.799,0.686,6.853-1.349c1.128-2.146-0.028-5.61-0.62-7.582C750.922,387.707,748.819,389.426,747.734,391.367z"/>
			</g>
		</g>
	</g>
</g>
</svg>
